# xmcd
#
# Track frame offsets:
#	150
#	10316
#	20790
#	33181
#	45840
#	56487
#	68871
#	79673
#	89096
#	101146
#	114064
#	126134
#	140523
#	150672
#	160902
#	172662
#	183951
#	196147
#	205353
#	217041
#
# Disc length: 3037 seconds
#
# Revision: 1
# Processed by: cddbd v1.5.2PL0 Copyright (c) Steve Scherf et al.
# Submitted via: audiograbber 1.83.01
#
DISCID=080bdb14
DTITLE=Porter Wagoner - The Definitive Collection
DYEAR=2013
DGENRE=Country
TTITLE0=Howdy Neighbor, Howdy
TTITLE1=Trademark
TTITLE2=Company's Comin'
TTITLE3=A Satisfied Mind
TTITLE4=Eat, Drink And Be Merry (Tomorow You'll Cry)
TTITLE5=What Would You Do (If Jesus Came To Your House)
TTITLE6=Uncle Pen
TTITLE7=Tryin' To Forget The Blues
TTITLE8=A Good Time Was Had By All
TTITLE9=Midnight
TTITLE10=I Thought I Heard You Calling My Name
TTITLE11=Legend Of The Big Steeple
TTITLE12=Your Old Love Letters
TTITLE13=Everything She Touches Gets The Blues
TTITLE14=Misery Loves Company
TTITLE15=Cold Dark Waters
TTITLE16=I've Enjoyed As Much Of This As I Can Stand
TTITLE17=Sorrow On The Rocks
TTITLE18=The Life Of The Party
TTITLE19=I'll Go Down Swinging
EXTD=
EXTT0=
EXTT1=
EXTT2=
EXTT3=
EXTT4=
EXTT5=
EXTT6=
EXTT7=
EXTT8=
EXTT9=
EXTT10=
EXTT11=
EXTT12=
EXTT13=
EXTT14=
EXTT15=
EXTT16=
EXTT17=
EXTT18=
EXTT19=
PLAYORDER=
